<svg width="48" height="40" viewBox="0 0 48 40" fill="none" xmlns="http://www.w3.org/2000/svg">
<g id="icn resize icn-md" clip-path="url(#clip0_1479_29345)">
<path id="Vector" fill-rule="evenodd" clip-rule="evenodd" d="M45.9167 38.6666C45.9167 38.6666 49 38.6666 49 35.5555C49 32.4444 45.9167 23.111 33.5833 23.111C21.25 23.111 18.1667 32.4444 18.1667 35.5555C18.1667 38.6666 21.25 38.6666 21.25 38.6666H45.9167ZM21.3178 35.5555H45.8488C45.8633 35.5538 45.8777 35.5517 45.892 35.5493L45.9167 35.543C45.9105 34.7217 45.4017 32.3386 43.5733 30.1919C41.8713 28.179 38.8805 26.2221 33.5833 26.2221C28.2892 26.2221 25.2984 28.1821 23.5933 30.1919C21.7649 32.3386 21.2531 34.7248 21.25 35.543C21.2726 35.5474 21.2952 35.5516 21.3178 35.5555ZM33.5833 16.8888C35.2188 16.8888 36.7873 16.2333 37.9438 15.0664C39.1003 13.8995 39.75 12.3168 39.75 10.6666C39.75 9.01635 39.1003 7.4337 37.9438 6.26681C36.7873 5.09992 35.2188 4.44436 33.5833 4.44436C31.9478 4.44436 30.3793 5.09992 29.2228 6.26681C28.0664 7.4337 27.4167 9.01635 27.4167 10.6666C27.4167 12.3168 28.0664 13.8995 29.2228 15.0664C30.3793 16.2333 31.9478 16.8888 33.5833 16.8888ZM42.8333 10.6666C42.8333 11.8923 42.5941 13.1059 42.1292 14.2383C41.6644 15.3707 40.983 16.3996 40.1241 17.2662C39.2651 18.1329 38.2454 18.8204 37.1231 19.2895C36.0009 19.7585 34.798 19.9999 33.5833 19.9999C32.3686 19.9999 31.1658 19.7585 30.0435 19.2895C28.9212 18.8204 27.9015 18.1329 27.0426 17.2662C26.1836 16.3996 25.5023 15.3707 25.0374 14.2383C24.5726 13.1059 24.3333 11.8923 24.3333 10.6666C24.3333 8.19123 25.3079 5.81726 27.0426 4.06692C28.7773 2.31658 31.1301 1.33325 33.5833 1.33325C36.0366 1.33325 38.3894 2.31658 40.1241 4.06692C41.8588 5.81726 42.8333 8.19123 42.8333 10.6666ZM21.0527 23.9821C19.8193 23.5903 18.5479 23.3326 17.2602 23.2137C16.5366 23.1443 15.8101 23.11 15.0833 23.111C2.74999 23.111 -0.333344 32.4444 -0.333344 35.5555C-0.333344 37.6306 0.693406 38.6666 2.74999 38.6666H15.7493C15.2922 37.6953 15.0643 36.6305 15.0833 35.5555C15.0833 32.4132 16.2457 29.2026 18.4442 26.5208C19.1934 25.6061 20.066 24.7506 21.0527 23.9821ZM14.8367 26.2221C9.69366 26.2844 6.77374 28.2133 5.09332 30.1919C3.25257 32.351 2.74999 34.7435 2.74999 35.5555H12C12 32.3044 12.9959 29.0657 14.8367 26.2221ZM4.29166 12.2221C4.29166 9.74679 5.26621 7.37282 7.00092 5.62248C8.73563 3.87214 11.0884 2.88881 13.5417 2.88881C15.9949 2.88881 18.3477 3.87214 20.0824 5.62248C21.8171 7.37282 22.7917 9.74679 22.7917 12.2221C22.7917 14.6975 21.8171 17.0715 20.0824 18.8218C18.3477 20.5721 15.9949 21.5555 13.5417 21.5555C11.0884 21.5555 8.73563 20.5721 7.00092 18.8218C5.26621 17.0715 4.29166 14.6975 4.29166 12.2221ZM13.5417 5.99992C11.9062 5.99992 10.3376 6.65547 9.18116 7.82236C8.02469 8.98926 7.37499 10.5719 7.37499 12.2221C7.37499 13.8724 8.02469 15.455 9.18116 16.6219C10.3376 17.7888 11.9062 18.4444 13.5417 18.4444C15.1772 18.4444 16.7457 17.7888 17.9021 16.6219C19.0586 15.455 19.7083 13.8724 19.7083 12.2221C19.7083 10.5719 19.0586 8.98926 17.9021 7.82236C16.7457 6.65547 15.1772 5.99992 13.5417 5.99992Z" fill="white"/>
</g>
<defs>
<clipPath id="clip0_1479_29345">
<rect width="48" height="39.5295" fill="white"/>
</clipPath>
</defs>
</svg>
